<svg xmlns="http://www.w3.org/2000/svg" width="163" height="54" viewBox="0 0 163 54" fill="none">
  <g clip-path="url(#clip0_311_845)">
    <path d="M71.6487 41.0759C69.1281 41.4704 66.5324 41.5201 63.9821 41.3594C58.7336 41.1298 53.3094 38.623 50.6132 33.9868C50.3392 33.5193 50.0928 33.0348 49.8738 32.5377C49.7342 32.2214 49.9203 31.8565 50.2588 31.7825C55.8321 30.5713 61.7281 29.0122 65.6904 25.6845C69.5237 22.4499 70.5952 17.8243 69.2751 13.0792C68.3633 9.76423 65.9697 6.57299 63.0725 4.54104C57.7424 0.911883 51.8254 2.86027 47.9148 7.41179C46.1526 9.47229 44.7553 11.8438 43.7272 14.3803C43.5632 14.7843 43.0217 14.8467 42.7731 14.4892C38.1645 7.84123 31.3303 2.85075 22.8799 2.60111C16.4911 2.29119 10.8268 5.12809 7.11724 10.3037C0.195298 19.8616 -0.555707 35.9659 0.219627 47.5007C0.238667 47.7852 0.474545 48.0063 0.760138 48.0084L9.07409 48.0782C9.38507 48.0803 9.6347 47.8254 9.62518 47.5155C9.60931 47.0141 9.59239 46.3573 9.5797 46.2335C9.25602 41.573 9.28247 36.8152 9.70874 32.1781C10.4851 24.5464 12.7752 11.1658 22.5858 11.6841C30.2673 11.9358 35.7475 18.2982 38.6468 25.3989C38.7727 25.7057 38.5907 26.0505 38.2692 26.1309C30.9326 27.9608 23.8403 31.0801 22.7075 38.5775C21.7989 45.0361 25.6671 50.0171 31.5323 52.1379C37.4526 54.2428 43.6553 52.8392 47.021 47.2712C47.7319 46.0674 48.2819 44.7865 48.6934 43.4527C48.8076 43.0803 49.2582 42.9428 49.5597 43.1893C53.686 46.5561 59.1038 48.4558 65.0515 48.6526C68.2978 48.8324 71.5609 48.6684 74.7776 48.1501C75.3562 48.056 75.9337 47.9481 76.5112 47.8318C76.7619 47.781 76.9439 47.5631 76.9491 47.3071L77.0888 41.0156C77.0962 40.6697 76.7862 40.4042 76.4467 40.4656C75.041 40.7215 72.6346 40.9257 71.6477 41.0748L71.6487 41.0759ZM40.6322 40.3915C40.1541 42.3166 39.3618 44.301 37.2918 44.5792C35.0917 44.8394 32.002 43.6515 31.1367 41.5794C31.0627 41.3953 31.0214 41.1996 30.9908 41.0029C30.8554 39.9568 30.9728 38.9551 31.6307 38.1417C33.339 36.1002 36.9777 34.8944 40.2429 34.045C40.5719 33.9593 40.8966 34.191 40.9252 34.5284C41.0966 36.4947 41.0542 38.5383 40.6311 40.3905L40.6322 40.3915ZM49.2191 23.863C48.8541 23.9434 48.5156 23.643 48.5527 23.2718C48.9694 19.1137 50.5952 15.0276 53.1433 12.0532C54.7225 10.327 56.8878 8.8588 58.9811 10.4719C59.621 10.9299 60.2874 11.6322 60.8935 12.4742C61.563 13.3648 62.0644 14.3792 62.2358 15.474C62.4738 16.7094 62.4145 18.0665 61.5874 19.0513C59.2127 21.8237 53.2829 22.9587 49.5501 23.7911C49.4412 23.8154 49.3301 23.8408 49.2191 23.8652V23.863Z" fill="url(#paint0_linear_311_845)"/>
    <path d="M81.1381 16.4174C81.0514 16.4174 80.9763 16.3846 80.9118 16.3201C80.8472 16.2556 80.8145 16.1794 80.8145 16.0937C80.8145 16.0398 80.8197 15.9806 80.8303 15.915L84.8487 5.43263C84.8921 5.32474 84.9513 5.23801 85.0264 5.17348C85.1015 5.10896 85.2158 5.07617 85.367 5.07617H86.4692C86.6205 5.07617 86.7336 5.10896 86.8098 5.17348C86.8849 5.23801 86.9452 5.32474 86.9875 5.43263L90.989 15.915C91.0101 15.9795 91.0218 16.0398 91.0218 16.0937C91.0218 16.1805 90.989 16.2556 90.9245 16.3201C90.8599 16.3846 90.7838 16.4174 90.6981 16.4174H89.872C89.7419 16.4174 89.6478 16.3846 89.5885 16.3201C89.5293 16.2556 89.488 16.1963 89.4669 16.1424L88.5763 13.8418H83.2621L82.3715 16.1424C82.3609 16.1963 82.3228 16.2556 82.2583 16.3201C82.1938 16.3846 82.0965 16.4174 81.9663 16.4174H81.1402H81.1381ZM83.7307 12.4477H88.1055L85.9181 6.69559L83.7307 12.4477Z" fill="white"/>
    <path d="M93.0136 16.4175C92.9057 16.4175 92.8169 16.3826 92.746 16.3118C92.6751 16.242 92.6402 16.1521 92.6402 16.0442V9.28828H91.263C91.1551 9.28828 91.0652 9.25338 90.9954 9.18251C90.9246 9.1127 90.8896 9.02278 90.8896 8.91489V8.36381C90.8896 8.25592 90.9246 8.16706 90.9954 8.09619C91.0652 8.02638 91.1541 7.99042 91.263 7.99042H92.6402V7.18018C92.6402 6.62909 92.7323 6.14569 92.9153 5.72999C93.0993 5.3143 93.3934 4.99274 93.7985 4.76638C94.2036 4.54002 94.7462 4.42578 95.4264 4.42578H96.3984C96.5063 4.42578 96.5952 4.46069 96.666 4.53156C96.7359 4.60243 96.7718 4.69128 96.7718 4.79917V5.35026C96.7718 5.45816 96.7369 5.547 96.666 5.61787C96.5952 5.68874 96.5063 5.72365 96.3984 5.72365H95.4591C94.9514 5.72365 94.6055 5.85587 94.4226 6.12031C94.2385 6.38475 94.1475 6.76554 94.1475 7.26268V7.99147H96.2376C96.3455 7.99147 96.4344 8.02638 96.5053 8.09725C96.5751 8.16812 96.611 8.25697 96.611 8.36487V8.91595C96.611 9.02384 96.5761 9.1127 96.5053 9.18357C96.4344 9.25444 96.3455 9.28934 96.2376 9.28934H94.1475V16.0452C94.1475 16.1531 94.1126 16.242 94.0417 16.3128C93.9709 16.3837 93.882 16.4186 93.7741 16.4186H93.0126L93.0136 16.4175Z" fill="white"/>
    <path d="M98.0033 16.4172C97.8954 16.4172 97.8065 16.3823 97.7357 16.3114C97.6648 16.2416 97.6299 16.1517 97.6299 16.0438V8.38038C97.6299 8.27249 97.6648 8.18047 97.7357 8.10537C97.8055 8.03027 97.8954 7.99219 98.0033 7.99219H98.749C98.8569 7.99219 98.9489 8.03027 99.024 8.10537C99.0991 8.18153 99.1372 8.27249 99.1372 8.38038V9.09331C99.353 8.72627 99.6502 8.45125 100.028 8.2672C100.405 8.08421 100.864 7.99219 101.405 7.99219H102.036C102.144 7.99219 102.233 8.02709 102.304 8.09796C102.374 8.16883 102.41 8.25768 102.41 8.36557V9.02984C102.41 9.13774 102.375 9.22447 102.304 9.289C102.233 9.35352 102.144 9.38631 102.036 9.38631H101.064C100.482 9.38631 100.021 9.55661 99.6872 9.89615C99.3519 10.2367 99.1848 10.6979 99.1848 11.2818V16.0449C99.1848 16.1528 99.1467 16.2416 99.0716 16.3125C98.9954 16.3834 98.9045 16.4183 98.7966 16.4183H98.0022L98.0033 16.4172Z" fill="white"/>
    <path d="M103.625 6.42239C103.517 6.42239 103.428 6.38749 103.358 6.31768C103.287 6.24787 103.252 6.15796 103.252 6.05007V5.1753C103.252 5.06741 103.287 4.97539 103.358 4.90029C103.428 4.82519 103.516 4.78711 103.625 4.78711H104.646C104.754 4.78711 104.846 4.82519 104.921 4.90029C104.996 4.97645 105.034 5.06741 105.034 5.1753V6.05007C105.034 6.15796 104.996 6.24681 104.921 6.31768C104.845 6.38855 104.754 6.42239 104.646 6.42239H103.625ZM103.755 16.4192C103.648 16.4192 103.559 16.3843 103.488 16.3135C103.417 16.2436 103.382 16.1537 103.382 16.0459V8.36655C103.382 8.25866 103.417 8.16981 103.488 8.09894C103.559 8.02807 103.648 7.99316 103.755 7.99316H104.533C104.641 7.99316 104.73 8.02807 104.801 8.09894C104.87 8.16981 104.906 8.25866 104.906 8.36655V16.0459C104.906 16.1537 104.871 16.2426 104.801 16.3135C104.73 16.3843 104.641 16.4192 104.533 16.4192H103.755Z" fill="white"/>
    <path d="M110.3 16.5837C109.534 16.5837 108.872 16.4346 108.316 16.1384C107.76 15.8412 107.33 15.4149 107.028 14.8585C106.725 14.3022 106.563 13.6358 106.542 12.8573C106.532 12.6954 106.526 12.4796 106.526 12.2089C106.526 11.9381 106.532 11.7223 106.542 11.5605C106.563 10.783 106.725 10.1156 107.028 9.55918C107.33 9.0028 107.76 8.57653 108.316 8.2793C108.872 7.98207 109.534 7.83398 110.3 7.83398C110.927 7.83398 111.464 7.92072 111.912 8.09314C112.361 8.26555 112.731 8.48768 113.022 8.75741C113.314 9.02714 113.532 9.31907 113.678 9.63217C113.824 9.94526 113.902 10.2425 113.913 10.5228C113.923 10.6307 113.89 10.7174 113.815 10.7819C113.739 10.8465 113.648 10.8793 113.54 10.8793H112.763C112.655 10.8793 112.574 10.8549 112.52 10.8063C112.466 10.7576 112.412 10.6741 112.358 10.5556C112.163 10.0267 111.899 9.65333 111.564 9.43754C111.229 9.22176 110.813 9.11387 110.317 9.11387C109.669 9.11387 109.143 9.31379 108.738 9.71362C108.333 10.1134 108.114 10.7555 108.082 11.6419C108.072 12.0312 108.072 12.4088 108.082 12.7758C108.115 13.6728 108.333 14.318 108.738 14.7115C109.143 15.1061 109.67 15.3028 110.317 15.3028C110.815 15.3028 111.23 15.1949 111.564 14.9791C111.899 14.7633 112.164 14.391 112.358 13.8611C112.412 13.7426 112.466 13.6559 112.52 13.6019C112.574 13.548 112.655 13.5205 112.763 13.5205H113.54C113.648 13.5205 113.74 13.5554 113.815 13.6252C113.89 13.6961 113.923 13.7849 113.913 13.8928C113.902 14.1192 113.853 14.3519 113.767 14.5899C113.68 14.8279 113.542 15.068 113.353 15.3113C113.164 15.5545 112.929 15.7703 112.649 15.9597C112.367 16.149 112.033 16.3003 111.644 16.4134C111.255 16.5266 110.807 16.5837 110.299 16.5837H110.3Z" fill="white"/>
    <path d="M117.785 16.5827C117.244 16.5827 116.754 16.4748 116.31 16.259C115.867 16.0432 115.511 15.7513 115.241 15.3842C114.971 15.0172 114.836 14.6015 114.836 14.1371C114.836 13.3914 115.138 12.798 115.743 12.3548C116.349 11.9116 117.137 11.6207 118.109 11.4801L120.522 11.1395V10.6698C120.522 10.1515 120.373 9.74641 120.077 9.45447C119.78 9.16253 119.296 9.01655 118.627 9.01655C118.152 9.01655 117.763 9.11387 117.46 9.30849C117.158 9.50312 116.947 9.7517 116.829 10.0532C116.764 10.215 116.651 10.2964 116.488 10.2964H115.759C115.64 10.2964 115.551 10.2615 115.492 10.1917C115.433 10.1219 115.403 10.0373 115.403 9.94103C115.403 9.77919 115.465 9.57928 115.589 9.34128C115.713 9.10435 115.905 8.87165 116.164 8.64423C116.424 8.41681 116.756 8.22536 117.161 8.06881C117.566 7.91226 118.06 7.83398 118.644 7.83398C119.292 7.83398 119.837 7.91755 120.28 8.08467C120.723 8.2518 121.071 8.47605 121.325 8.75741C121.579 9.03877 121.763 9.35715 121.876 9.71362C121.99 10.0701 122.047 10.4318 122.047 10.7989V16.0485C122.047 16.1564 122.012 16.2452 121.941 16.3161C121.87 16.387 121.781 16.4219 121.673 16.4219H120.928C120.809 16.4219 120.717 16.387 120.653 16.3161C120.588 16.2463 120.555 16.1564 120.555 16.0485V15.3514C120.415 15.5461 120.225 15.7375 119.988 15.9269C119.75 16.1162 119.453 16.2728 119.097 16.3965C118.74 16.5203 118.302 16.5827 117.784 16.5827H117.785ZM118.126 15.3673C118.569 15.3673 118.974 15.2732 119.341 15.0838C119.708 14.8945 119.997 14.6004 120.207 14.2006C120.418 13.8008 120.523 13.2994 120.523 12.6944V12.2406L118.644 12.5156C117.877 12.6235 117.299 12.8044 116.91 13.0582C116.521 13.3121 116.327 13.6337 116.327 14.0218C116.327 14.3244 116.416 14.5751 116.595 14.775C116.773 14.9749 117 15.123 117.275 15.2203C117.55 15.3176 117.834 15.3663 118.126 15.3663V15.3673Z" fill="white"/>
    <path d="M84.7014 32.3393C84.5935 32.3393 84.5036 32.3044 84.4338 32.2346C84.3629 32.1648 84.328 32.0749 84.328 31.967V22.4408H81.2171C81.1092 22.4408 81.0193 22.4059 80.9495 22.3351C80.8787 22.2652 80.8438 22.1753 80.8438 22.0674V21.3873C80.8438 21.2688 80.8787 21.1747 80.9495 21.1038C81.0193 21.034 81.1082 20.998 81.2171 20.998H89.0265C89.145 20.998 89.2402 21.033 89.31 21.1038C89.3798 21.1747 89.4158 21.2688 89.4158 21.3873V22.0674C89.4158 22.1753 89.3809 22.2652 89.31 22.3351C89.2391 22.4059 89.145 22.4408 89.0265 22.4408H85.9315V31.967C85.9315 32.0749 85.8966 32.1637 85.8258 32.2346C85.7549 32.3054 85.6608 32.3393 85.5423 32.3393H84.7003H84.7014Z" fill="white"/>
    <path d="M92.4303 32.4987C91.307 32.4987 90.4153 32.156 89.7574 31.4695C89.0984 30.7841 88.7366 29.8469 88.6721 28.659C88.6615 28.5184 88.6562 28.3375 88.6562 28.1164C88.6562 27.8953 88.6615 27.7145 88.6721 27.5738C88.7155 26.8069 88.8932 26.1342 89.2063 25.5566C89.5194 24.9791 89.9488 24.5338 90.4946 24.2196C91.0394 23.9065 91.6793 23.75 92.4144 23.75C93.2353 23.75 93.9239 23.9224 94.4802 24.2683C95.0366 24.6142 95.4608 25.106 95.7517 25.7428C96.0436 26.3806 96.1896 27.1253 96.1896 27.9789V28.2539C96.1896 28.3724 96.1547 28.4644 96.0838 28.5289C96.0129 28.5935 95.9241 28.6263 95.8162 28.6263H90.2101V28.7722C90.2312 29.2154 90.3286 29.6279 90.502 30.0119C90.6744 30.3959 90.9262 30.7058 91.2551 30.9438C91.5841 31.1818 91.9702 31.3003 92.4134 31.3003C92.8027 31.3003 93.1263 31.241 93.3855 31.1226C93.6446 31.0041 93.8551 30.8719 94.0169 30.7259C94.1788 30.5799 94.2867 30.4646 94.3406 30.3779C94.4379 30.2478 94.513 30.1706 94.567 30.1431C94.6209 30.1166 94.7077 30.1029 94.8261 30.1029H95.6205C95.7178 30.1029 95.8014 30.1325 95.8712 30.1917C95.941 30.251 95.9706 30.3356 95.96 30.4424C95.9495 30.6043 95.8627 30.802 95.7009 31.0337C95.5391 31.2664 95.3095 31.4959 95.0123 31.7223C94.7151 31.9487 94.348 32.1359 93.9101 32.2808C93.4722 32.4268 92.9782 32.4998 92.4282 32.4998L92.4303 32.4987ZM90.2111 27.5082H94.6505V27.4595C94.6505 26.973 94.5617 26.5414 94.3829 26.1638C94.2052 25.7862 93.9482 25.4858 93.6129 25.2647C93.2776 25.0436 92.8788 24.9326 92.4144 24.9326C91.9501 24.9326 91.5534 25.0436 91.2234 25.2647C90.8934 25.4858 90.6427 25.7862 90.4703 26.1638C90.2979 26.5414 90.2111 26.974 90.2111 27.4595V27.5082Z" fill="white"/>
    <path d="M101.13 32.4998C100.363 32.4998 99.7016 32.3506 99.1452 32.0544C98.5888 31.7572 98.1594 31.3309 97.8568 30.7746C97.5543 30.2182 97.3925 29.5518 97.3713 28.7733C97.3608 28.6114 97.3555 28.3957 97.3555 28.1249C97.3555 27.8541 97.3608 27.6383 97.3713 27.4765C97.3925 26.699 97.5543 26.0316 97.8568 25.4752C98.1594 24.9188 98.5888 24.4925 99.1452 24.1953C99.7016 23.8981 100.363 23.75 101.13 23.75C101.756 23.75 102.293 23.8367 102.742 24.0092C103.19 24.1816 103.56 24.4037 103.851 24.6734C104.143 24.9432 104.362 25.2351 104.507 25.5482C104.653 25.8613 104.731 26.1585 104.742 26.4388C104.752 26.5467 104.72 26.6334 104.644 26.698C104.568 26.7625 104.477 26.7953 104.369 26.7953H103.592C103.484 26.7953 103.403 26.771 103.349 26.7223C103.295 26.6736 103.241 26.5901 103.187 26.4716C102.992 25.9427 102.728 25.5704 102.392 25.3536C102.057 25.1378 101.641 25.0299 101.145 25.0299C100.497 25.0299 99.9713 25.2298 99.5662 25.6296C99.1611 26.0295 98.9421 26.6726 98.9104 27.5579C98.8998 27.9472 98.8998 28.3248 98.9104 28.6918C98.9432 29.5888 99.1611 30.234 99.5662 30.6275C99.9713 31.0221 100.498 31.2188 101.145 31.2188C101.643 31.2188 102.058 31.1109 102.392 30.8951C102.727 30.6794 102.992 30.306 103.187 29.7771C103.241 29.6586 103.295 29.5719 103.349 29.5179C103.403 29.464 103.484 29.4365 103.592 29.4365H104.369C104.477 29.4365 104.569 29.4714 104.644 29.5412C104.72 29.6121 104.752 29.7009 104.742 29.8088C104.731 30.0352 104.683 30.2679 104.596 30.5059C104.509 30.7439 104.372 30.984 104.182 31.2273C103.993 31.4706 103.758 31.6863 103.478 31.8757C103.196 32.065 102.862 32.2163 102.473 32.3295C102.084 32.4426 101.636 32.4998 101.128 32.4998H101.13Z" fill="white"/>
    <path d="M106.656 32.3381C106.548 32.3381 106.459 32.3032 106.388 32.2334C106.317 32.1636 106.282 32.0737 106.282 31.9658V21.2074C106.282 21.0995 106.317 21.0106 106.388 20.9398C106.459 20.8689 106.548 20.834 106.656 20.834H107.466C107.584 20.834 107.676 20.8689 107.741 20.9398C107.805 21.0106 107.838 21.0995 107.838 21.2074V24.9825C108.13 24.6155 108.487 24.3182 108.908 24.0919C109.329 23.8655 109.864 23.7513 110.511 23.7513C111.213 23.7513 111.81 23.9046 112.301 24.2125C112.793 24.5203 113.165 24.9476 113.419 25.4923C113.673 26.0381 113.8 26.6728 113.8 27.3963V31.9647C113.8 32.0726 113.767 32.1615 113.702 32.2323C113.638 32.3032 113.546 32.3371 113.427 32.3371H112.617C112.509 32.3371 112.42 32.3022 112.35 32.2323C112.279 32.1625 112.244 32.0726 112.244 31.9647V27.4767C112.244 26.7204 112.06 26.1291 111.693 25.7028C111.326 25.2766 110.785 25.0629 110.072 25.0629C109.403 25.0629 108.862 25.2766 108.452 25.7028C108.041 26.1291 107.836 26.7215 107.836 27.4767V31.9647C107.836 32.0726 107.803 32.1615 107.739 32.2323C107.674 32.3032 107.582 32.3371 107.464 32.3371H106.653L106.656 32.3381Z" fill="white"/>
    <path d="M116.1 32.3358C115.992 32.3358 115.903 32.3009 115.832 32.2311C115.761 32.1613 115.728 32.0714 115.728 31.9635V24.2842C115.728 24.1763 115.762 24.0874 115.832 24.0166C115.902 23.9457 115.992 23.9108 116.1 23.9108H116.861C116.969 23.9108 117.058 23.9457 117.129 24.0166C117.199 24.0874 117.235 24.1763 117.235 24.2842V24.9971C117.515 24.63 117.869 24.3307 118.296 24.098C118.722 23.8664 119.27 23.75 119.941 23.75C120.611 23.75 121.239 23.9034 121.731 24.2112C122.223 24.519 122.596 24.9463 122.849 25.4911C123.103 26.0369 123.23 26.6715 123.23 27.395V31.9635C123.23 32.0714 123.195 32.1602 123.124 32.2311C123.054 32.3019 122.965 32.3358 122.857 32.3358H122.047C121.939 32.3358 121.85 32.3009 121.779 32.2311C121.708 32.1613 121.673 32.0714 121.673 31.9635V27.4754C121.673 26.7191 121.489 26.1278 121.122 25.7016C120.755 25.2753 120.215 25.0616 119.502 25.0616C118.832 25.0616 118.295 25.2753 117.89 25.7016C117.484 26.1278 117.282 26.7202 117.282 27.4754V31.9635C117.282 32.0714 117.248 32.1602 117.177 32.2311C117.106 32.3019 117.017 32.3358 116.909 32.3358H116.099H116.1Z" fill="white"/>
    <path d="M128.591 32.4976C127.77 32.4976 127.084 32.3411 126.534 32.028C125.983 31.7149 125.562 31.2802 125.27 30.7238C124.978 30.1674 124.816 29.5327 124.784 28.8198C124.774 28.6368 124.769 28.4009 124.769 28.1154C124.769 27.8298 124.774 27.5992 124.784 27.4268C124.817 26.7033 124.981 26.0654 125.278 25.5154C125.576 24.9643 126 24.5327 126.55 24.2196C127.101 23.9065 127.781 23.75 128.591 23.75C129.402 23.75 130.082 23.9065 130.633 24.2196C131.184 24.5327 131.607 24.9654 131.904 25.5154C132.201 26.0665 132.366 26.7033 132.398 27.4268C132.409 27.5992 132.414 27.8298 132.414 28.1154C132.414 28.4009 132.409 28.6368 132.398 28.8198C132.365 29.5327 132.204 30.1674 131.912 30.7238C131.62 31.2802 131.199 31.7149 130.648 32.028C130.096 32.3411 129.411 32.4976 128.59 32.4976H128.591ZM128.591 31.2505C129.261 31.2505 129.795 31.0369 130.195 30.6106C130.595 30.1843 130.81 29.5602 130.843 28.7394C130.854 28.5776 130.859 28.3724 130.859 28.1238C130.859 27.8752 130.854 27.67 130.843 27.5082C130.81 26.6874 130.595 26.0633 130.195 25.637C129.795 25.2108 129.261 24.9971 128.591 24.9971C127.922 24.9971 127.384 25.2108 126.979 25.637C126.574 26.0644 126.36 26.6874 126.339 27.5082C126.329 27.67 126.323 27.8752 126.323 28.1238C126.323 28.3724 126.329 28.5776 126.339 28.7394C126.36 29.5602 126.574 30.1843 126.979 30.6106C127.384 31.0369 127.922 31.2505 128.591 31.2505Z" fill="white"/>
    <path d="M134.426 32.3381C134.318 32.3381 134.229 32.3032 134.159 32.2334C134.088 32.1636 134.053 32.0737 134.053 31.9658V21.2074C134.053 21.0995 134.088 21.0106 134.159 20.9398C134.228 20.8699 134.318 20.834 134.426 20.834H135.188C135.306 20.834 135.398 20.8689 135.463 20.9398C135.527 21.0106 135.56 21.0995 135.56 21.2074V31.9658C135.56 32.0737 135.527 32.1625 135.463 32.2334C135.398 32.3043 135.306 32.3381 135.188 32.3381H134.426Z" fill="white"/>
    <path d="M141.019 32.4976C140.198 32.4976 139.513 32.3411 138.962 32.028C138.411 31.7149 137.99 31.2802 137.698 30.7238C137.406 30.1674 137.244 29.5327 137.211 28.8198C137.201 28.6368 137.195 28.4009 137.195 28.1154C137.195 27.8298 137.201 27.5992 137.211 27.4268C137.244 26.7033 137.408 26.0654 137.705 25.5154C138.002 24.9643 138.427 24.5327 138.977 24.2196C139.528 23.9065 140.208 23.75 141.018 23.75C141.828 23.75 142.508 23.9065 143.059 24.2196C143.611 24.5327 144.034 24.9654 144.331 25.5154C144.628 26.0665 144.793 26.7033 144.825 27.4268C144.835 27.5992 144.841 27.8298 144.841 28.1154C144.841 28.4009 144.835 28.6368 144.825 28.8198C144.792 29.5327 144.63 30.1674 144.338 30.7238C144.046 31.2802 143.625 31.7149 143.074 32.028C142.523 32.3411 141.838 32.4976 141.017 32.4976H141.019ZM141.019 31.2505C141.689 31.2505 142.224 31.0369 142.623 30.6106C143.022 30.1843 143.238 29.5602 143.271 28.7394C143.282 28.5776 143.287 28.3724 143.287 28.1238C143.287 27.8752 143.282 27.67 143.271 27.5082C143.238 26.6874 143.022 26.0633 142.623 25.637C142.223 25.2108 141.689 24.9971 141.019 24.9971C140.35 24.9971 139.812 25.2108 139.407 25.637C139.002 26.0644 138.788 26.6874 138.767 27.5082C138.757 27.67 138.751 27.8752 138.751 28.1238C138.751 28.3724 138.757 28.5776 138.767 28.7394C138.788 29.5602 139.002 30.1843 139.407 30.6106C139.812 31.0369 140.35 31.2505 141.019 31.2505Z" fill="white"/>
    <path d="M149.912 35.9015C149.178 35.9015 148.575 35.8042 148.105 35.6096C147.635 35.4149 147.268 35.1801 147.003 34.9051C146.738 34.6301 146.549 34.354 146.436 34.079C146.323 33.804 146.26 33.585 146.25 33.4232C146.239 33.3153 146.274 33.2233 146.355 33.1482C146.437 33.072 146.526 33.035 146.623 33.035H147.401C147.498 33.035 147.578 33.0561 147.644 33.0995C147.708 33.1429 147.762 33.2349 147.806 33.3745C147.87 33.5363 147.967 33.7172 148.098 33.9171C148.228 34.1171 148.427 34.2895 148.697 34.4354C148.967 34.5814 149.346 34.6544 149.831 34.6544C150.317 34.6544 150.765 34.5835 151.111 34.4439C151.457 34.3032 151.718 34.0663 151.897 33.731C152.075 33.3957 152.165 32.9313 152.165 32.3379V31.2357C151.905 31.571 151.565 31.8492 151.144 32.0703C150.723 32.2914 150.193 32.4024 149.556 32.4024C148.919 32.4024 148.433 32.2967 148.001 32.0862C147.569 31.8757 147.215 31.589 146.94 31.2273C146.665 30.8655 146.46 30.4519 146.325 29.9876C146.189 29.5232 146.111 29.0377 146.09 28.5289C146.079 28.2264 146.079 27.9292 146.09 27.6383C146.111 27.1306 146.189 26.6451 146.325 26.1797C146.46 25.7153 146.665 25.2996 146.94 24.9326C147.215 24.5655 147.57 24.2768 148.001 24.0663C148.433 23.8558 148.951 23.75 149.556 23.75C150.205 23.75 150.741 23.8685 151.168 24.1065C151.595 24.3445 151.944 24.6406 152.213 24.9971V24.3C152.213 24.1921 152.248 24.1001 152.319 24.025C152.389 23.9499 152.478 23.9118 152.587 23.9118H153.332C153.44 23.9118 153.532 23.9499 153.607 24.025C153.683 24.1012 153.721 24.1921 153.721 24.3V32.1581C153.721 32.8816 153.599 33.5247 153.356 34.0864C153.112 34.6481 152.713 35.0912 152.156 35.4149C151.6 35.7386 150.852 35.9004 149.913 35.9004L149.912 35.9015ZM149.879 31.1056C150.419 31.1056 150.853 30.9819 151.183 30.7333C151.512 30.4847 151.755 30.1716 151.912 29.794C152.068 29.4164 152.152 29.0324 152.163 28.6432C152.173 28.4919 152.178 28.3058 152.178 28.0847C152.178 27.8636 152.173 27.6774 152.163 27.5262C152.152 27.1369 152.067 26.754 151.912 26.3753C151.755 25.9977 151.512 25.6846 151.183 25.4361C150.853 25.1875 150.418 25.0637 149.879 25.0637C149.339 25.0637 148.907 25.1854 148.583 25.4287C148.259 25.6719 148.027 25.9903 147.886 26.3849C147.745 26.7794 147.665 27.2036 147.643 27.6563C147.632 27.9377 147.632 28.2232 147.643 28.5152C147.664 28.969 147.745 29.3931 147.886 29.7866C148.027 30.1811 148.258 30.4995 148.583 30.7428C148.908 30.9861 149.339 31.1077 149.879 31.1077V31.1056Z" fill="white"/>
    <path d="M157.203 35.4171C157.116 35.4171 157.041 35.3844 156.977 35.3198C156.912 35.2553 156.879 35.1792 156.879 35.0935C156.879 35.0501 156.885 35.0067 156.895 34.9634C156.906 34.92 156.928 34.8661 156.96 34.8015L158.207 31.8366L155.112 24.5297C155.058 24.3996 155.03 24.3086 155.03 24.2547C155.03 24.1573 155.063 24.077 155.128 24.0114C155.192 23.9458 155.274 23.9141 155.371 23.9141H156.164C156.283 23.9141 156.373 23.9416 156.432 23.9955C156.491 24.0495 156.531 24.114 156.553 24.1901L159.016 30.0871L161.543 24.1901C161.576 24.115 161.621 24.0495 161.68 23.9955C161.74 23.9416 161.828 23.9141 161.948 23.9141H162.71C162.807 23.9141 162.887 23.9469 162.953 24.0114C163.017 24.0759 163.05 24.1521 163.05 24.2377C163.05 24.2917 163.023 24.389 162.969 24.5297L158.367 35.1421C158.335 35.2172 158.289 35.2828 158.23 35.3367C158.171 35.3907 158.081 35.4182 157.962 35.4182H157.201L157.203 35.4171Z" fill="white"/>
    <path d="M81.136 47.7056C81.0175 47.7056 80.9255 47.6707 80.861 47.5998C80.7965 47.53 80.7637 47.4401 80.7637 47.3322V36.7525C80.7637 36.6341 80.7965 36.5399 80.861 36.4691C80.9255 36.3992 81.0175 36.3633 81.136 36.3633H87.8273C87.9458 36.3633 88.0379 36.3982 88.1024 36.4691C88.1669 36.5399 88.1997 36.6341 88.1997 36.7525V37.3681C88.1997 37.4866 88.1669 37.5786 88.1024 37.6432C88.0379 37.7077 87.9458 37.7405 87.8273 37.7405H82.3186V41.2882H87.4709C87.5894 41.2882 87.6814 41.3231 87.7459 41.394C87.8104 41.4648 87.8432 41.559 87.8432 41.6774V42.2772C87.8432 42.3851 87.8104 42.4739 87.7459 42.5448C87.6814 42.6157 87.5894 42.6495 87.4709 42.6495H82.3186V46.3273H87.9564C88.0749 46.3273 88.1669 46.3601 88.2314 46.4246C88.2959 46.4892 88.3287 46.5812 88.3287 46.6997V47.3311C88.3287 47.439 88.2959 47.5279 88.2314 47.5987C88.1669 47.6696 88.0749 47.7045 87.9564 47.7045H81.136V47.7056Z" fill="white"/>
    <path d="M89.5769 47.7054C89.4902 47.7054 89.4119 47.6726 89.3421 47.6081C89.2712 47.5435 89.2363 47.4621 89.2363 47.3648C89.2363 47.332 89.2448 47.2918 89.2607 47.2431C89.2765 47.1945 89.3061 47.1374 89.3495 47.0728L92.1684 43.395L89.5272 39.9118C89.4838 39.8473 89.4542 39.7934 89.4384 39.75C89.4225 39.7066 89.414 39.6633 89.414 39.6199C89.414 39.5226 89.4468 39.4422 89.5113 39.3766C89.5759 39.311 89.6573 39.2793 89.7546 39.2793H90.5807C90.6992 39.2793 90.7912 39.3089 90.8557 39.3681C90.9203 39.4274 90.9689 39.4845 91.0017 39.5385L93.1564 42.3415L95.311 39.5543C95.3544 39.5004 95.4052 39.4411 95.4654 39.3766C95.5247 39.3121 95.6135 39.2793 95.733 39.2793H96.5264C96.6237 39.2793 96.7041 39.3121 96.7697 39.3766C96.8342 39.4411 96.867 39.5226 96.867 39.6199C96.867 39.6633 96.8585 39.7066 96.8426 39.75C96.8268 39.7934 96.7961 39.8473 96.7538 39.9118L94.0808 43.4278L96.8998 47.0728C96.9431 47.1374 96.9727 47.1913 96.9886 47.2347C97.0045 47.278 97.0129 47.3214 97.0129 47.3648C97.0129 47.4621 96.9801 47.5425 96.9156 47.6081C96.8511 47.6736 96.7696 47.7054 96.6723 47.7054H95.8134C95.7055 47.7054 95.6188 47.6789 95.5543 47.6239C95.4898 47.57 95.4358 47.516 95.3925 47.4621L93.1246 44.4972L90.824 47.4621C90.7807 47.5055 90.7288 47.5562 90.6696 47.6155C90.6103 47.6747 90.5204 47.7043 90.402 47.7043H89.5759L89.5769 47.7054Z" fill="white"/>
    <path d="M98.6829 50.785C98.5751 50.785 98.4852 50.7501 98.4153 50.6802C98.3445 50.6094 98.3096 50.5205 98.3096 50.4126V39.6553C98.3096 39.5474 98.3445 39.4585 98.4153 39.3876C98.4862 39.3168 98.5751 39.2819 98.6829 39.2819H99.4276C99.5355 39.2819 99.6244 39.3168 99.6952 39.3876C99.765 39.4585 99.7999 39.5474 99.7999 39.6553V40.3682C100.059 40.0117 100.405 39.7145 100.837 39.4776C101.268 39.2406 101.809 39.1211 102.457 39.1211C103.062 39.1211 103.577 39.2237 104.005 39.4289C104.431 39.6341 104.782 39.9144 105.058 40.2709C105.333 40.6273 105.541 41.0325 105.682 41.4862C105.823 41.94 105.903 42.4255 105.925 42.9449C105.936 43.1173 105.941 43.3013 105.941 43.496C105.941 43.6906 105.936 43.8747 105.925 44.0471C105.903 44.5548 105.823 45.0382 105.682 45.4972C105.541 45.9563 105.334 46.3614 105.058 46.7126C104.783 47.0638 104.432 47.3441 104.005 47.5556C103.578 47.7661 103.062 47.8719 102.457 47.8719C101.852 47.8719 101.304 47.7556 100.878 47.5239C100.452 47.2912 100.102 47.0024 99.8327 46.6576V50.4169C99.8327 50.5248 99.7999 50.6136 99.7354 50.6845C99.6709 50.7543 99.5842 50.7892 99.4763 50.7892H98.6829V50.785ZM102.117 46.5561C102.679 46.5561 103.119 46.4344 103.438 46.1911C103.756 45.9478 103.985 45.6295 104.126 45.2349C104.267 44.8404 104.347 44.4162 104.369 43.9635C104.38 43.6504 104.38 43.3373 104.369 43.0242C104.347 42.5704 104.267 42.1463 104.126 41.7528C103.985 41.3582 103.756 41.0399 103.438 40.7966C103.119 40.5533 102.678 40.4317 102.117 40.4317C101.589 40.4317 101.159 40.5554 100.829 40.804C100.499 41.0526 100.257 41.3688 100.1 41.7517C99.9438 42.1357 99.8549 42.5271 99.8327 42.9258C99.8221 43.0982 99.8169 43.3045 99.8169 43.5415C99.8169 43.7784 99.8221 43.9899 99.8327 44.1729C99.8433 44.5516 99.9322 44.9239 100.1 45.291C100.267 45.658 100.519 45.9605 100.853 46.1985C101.188 46.4365 101.61 46.555 102.117 46.555V46.5561Z" fill="white"/>
    <path d="M110.996 47.8687C110.175 47.8687 109.488 47.7122 108.938 47.3991C108.387 47.086 107.966 46.6513 107.674 46.0949C107.382 45.5385 107.22 44.9038 107.189 44.1909C107.178 44.0079 107.173 43.772 107.173 43.4864C107.173 43.2009 107.178 42.9703 107.189 42.7979C107.222 42.0743 107.385 41.4365 107.683 40.8865C107.98 40.3354 108.404 39.9038 108.954 39.5907C109.505 39.2776 110.185 39.1211 110.996 39.1211C111.806 39.1211 112.486 39.2776 113.037 39.5907C113.588 39.9038 114.011 40.3365 114.308 40.8865C114.606 41.4376 114.771 42.0743 114.802 42.7979C114.813 42.9703 114.818 43.1998 114.818 43.4864C114.818 43.7731 114.813 44.0079 114.802 44.1909C114.77 44.9038 114.608 45.5385 114.316 46.0949C114.024 46.6513 113.603 47.086 113.052 47.3991C112.501 47.7122 111.815 47.8687 110.995 47.8687H110.996ZM110.996 46.6216C111.665 46.6216 112.2 46.408 112.599 45.9817C112.999 45.5554 113.215 44.9313 113.248 44.1105C113.258 43.9487 113.263 43.7435 113.263 43.4949C113.263 43.2463 113.258 43.0411 113.248 42.8793C113.215 42.0585 112.999 41.4344 112.599 41.0081C112.199 40.5818 111.665 40.3682 110.996 40.3682C110.326 40.3682 109.789 40.5818 109.384 41.0081C108.978 41.4355 108.765 42.0585 108.744 42.8793C108.733 43.0411 108.728 43.2463 108.728 43.4949C108.728 43.7435 108.733 43.9487 108.744 44.1105C108.765 44.9313 108.978 45.5554 109.384 45.9817C109.789 46.408 110.326 46.6216 110.996 46.6216Z" fill="white"/>
  </g>
  <defs>
    <linearGradient id="paint0_linear_311_845" x1="12.6726" y1="-31.7431" x2="54.3397" y2="85.307" gradientUnits="userSpaceOnUse">
      <stop stop-color="#B3F00E"/>
      <stop offset="0.16" stop-color="#8EE536"/>
      <stop offset="0.34" stop-color="#6ADB5D"/>
      <stop offset="0.51" stop-color="#4ED37B"/>
      <stop offset="0.68" stop-color="#3ACD91"/>
      <stop offset="0.85" stop-color="#2FCA9E"/>
      <stop offset="1" stop-color="#2BC9A3"/>
    </linearGradient>
    <clipPath id="clip0_311_845">
      <rect width="163" height="52.0415" fill="white" transform="translate(0 0.978516)"/>
    </clipPath>
  </defs>
</svg>